# xmcd
#
# Track frame offsets:
#	150
#	17378
#	41968
#	44177
#	67627
#	91503
#	111142
#	139966
#	165922
#	198635
#	224383
#	243595
#
# Disc length: 3941 seconds
#
# Revision: 2
# Processed by: cddbd v1.5.2PL0 Copyright (c) Steve Scherf et al.
# Submitted via: Jack! The Knife
#
DISCID=a30f630c
DTITLE=Gamma Ray - Land Of The Free II
DYEAR=2007
DGENRE=Heavy Metal
TTITLE0=Into The Storm
TTITLE1=From The Ashes
TTITLE2=Rising Again
TTITLE3=To Mother Earth
TTITLE4=Rain
TTITLE5=Leaving Hell
TTITLE6=Empress
TTITLE7=When The World
TTITLE8=Opportunity
TTITLE9=Real World
TTITLE10=Hear Me Calling
TTITLE11=Insurrection
EXTD=Dirk Schlächter and Kai Hansen
EXTT0=Kai Hansen
EXTT1=Kai Hansen
EXTT2=Kai Hansen
EXTT3=Kai Hansen
EXTT4=Henjo Richter
EXTT5=Kai Hansen
EXTT6=Dan Zimmermann
EXTT7=Kai Hansen
EXTT8=Dirk Schlächter
EXTT9=Kai Hansen
EXTT10=Henjo Richter
EXTT11=Kai Hansen
PLAYORDER=
